Coordinates
version=1
nRows=24
nColumns=24
inDegrees=yes

Units are S.I. units (second, meters, Newtons, ...)
Angles are in degrees.

endheader
time	pelvis_tilt	pelvis_list	pelvis_rotation	pelvis_tx	pelvis_ty	pelvis_tz	hip_flexion_r	hip_adduction_r	hip_rotation_r	knee_angle_r	ankle_angle_r	subtalar_angle_r	mtp_angle_r	hip_flexion_l	hip_adduction_l	hip_rotation_l	knee_angle_l	ankle_angle_l	subtalar_angle_l	mtp_angle_l	lumbar_extension	lumbar_bending	lumbar_rotation
      3.38000000	     -9.78670123	      3.49423412	     -4.71850486	     -1.20446441	     -0.05145412	      0.69742378	     -9.07170064	     -5.27515704	      8.96715669	    -13.36335753	     11.69710231	      4.30893226	     13.58751006	     41.14701718	     -0.59602677	     -4.00331324	    -24.67558967	      5.10107348	      3.87544493	     -4.00214260	      7.61836450	     -1.12355608	      7.04805680
      3.38500000	     -9.86807711	      3.74347821	     -4.95059600	     -1.19604912	     -0.05267030	      0.69769745	     -8.87111214	     -5.60260499	      8.69629806	    -14.30550716	     11.08919667	      4.83960643	     15.67675679	     41.05637118	     -0.47229788	     -4.23268186	    -24.88898659	      3.63592721	      3.58485512	     -0.32467412	      7.82090637	     -1.54671822	      7.21359401
      3.39000000	    -10.04701020	      4.07117852	     -5.09396054	     -1.18757964	     -0.05397134	      0.69771429	     -8.47025323	     -6.00640280	      8.35521030	    -15.51288594	     10.83066736	      5.77582408	     16.16125707	     41.12765040	     -0.17122316	     -4.25762406	    -25.34063852	      2.88748348	      3.30290749	      0.46779451	      8.14180762	     -2.04795116	      7.31109283
      3.39500000	    -10.19121563	      4.40432672	     -5.24771393	     -1.17913168	     -0.05509384	      0.69790537	     -8.06268836	     -6.39038984	      8.19210961	    -16.70647259	     10.04297285	      6.12805365	     17.93964044	     41.16134914	      0.10981526	     -4.30539236	    -25.72797543	      1.21298507	      2.78734299	      3.90577520	      8.42646382	     -2.57750674	      7.40543755
      3.40000000	    -10.34069445	      4.67913399	     -5.29588834	     -1.17092550	     -0.05620251	      0.69781004	     -7.53800753	     -6.72149344	      7.84597862	    -18.13284462	      9.39191570	      6.89252848	     19.01101100	     41.31584832	      0.45370272	     -4.07369673	    -26.36768212	     -0.04430274	      2.29905980	      5.77528392	      8.66296386	     -3.04874273	      7.35682577
      3.40500000	    -10.55063490	      5.07465988	     -5.33093187	     -1.16257228	     -0.05727334	      0.69783269	     -6.87798750	     -7.16444199	      7.52930834	    -19.63775187	      8.48102634	      7.43336400	     20.59839864	     41.56122229	      0.90690861	     -3.79590562	    -27.07188778	     -1.25796536	      1.85621615	      7.74104876	      9.00658583	     -3.66588678	      7.36933627
      3.41000000	    -10.77337634	      5.45001524	     -5.29346684	     -1.15438392	     -0.05834477	      0.69761465	     -6.08903280	     -7.60898030	      7.04688239	    -21.35657611	      7.62040052	      8.31530595	     21.66430001	     41.92446928	      1.42489644	     -3.38841321	    -27.98196024	     -2.01415671	      1.39930396	      8.44955353	      9.33063639	     -4.25598104	      7.27109247
      3.41500000	    -10.93027770	      5.86111845	     -5.22513239	     -1.14621841	     -0.05922045	      0.69742594	     -5.33047884	     -8.07708665	      6.66756707	    -23.05295801	      6.24864406	      8.67618633	     23.92310584	     42.23516547	      2.02221800	     -2.93679185	    -28.88616481	     -2.81323083	      0.66545799	      9.35494829	      9.57811398	     -4.91040119	      7.11019392
      3.42000000	    -11.09020515	      6.25410930	     -5.15029449	     -1.13812156	     -0.06009045	      0.69712471	     -4.47347765	     -8.54609668	      6.29136568	    -24.89329984	      4.82728416	      9.24634301	     25.83864782	     42.58077947	      2.63746189	     -2.42051557	    -29.87681624	     -3.10309526	     -0.07839580	      9.18960700	      9.81741397	     -5.52998254	      6.98194824
      3.42500000	    -11.21987565	      6.68306885	     -5.03205583	     -1.12990807	     -0.06088395	      0.69675751	     -3.61597154	     -9.06231906	      5.90367992	    -26.74144463	      3.10234454	      9.66773165	     28.14695196	     42.88493974	      3.32555014	     -1.97619768	    -30.88049062	     -2.93302790	     -0.87820743	      7.87834824	     10.04302805	     -6.19636341	      6.79120528
      3.43000000	    -11.29189401	      7.08346475	     -4.92188244	     -1.12180868	     -0.06162354	      0.69631142	     -2.75075756	     -9.56328496	      5.56563528	    -28.64120092	      1.19093690	     10.05475040	     30.64644700	     43.12101901	      4.00165163	     -1.60387261	    -31.89481122	     -2.32030480	     -1.76289053	      5.26928242	     10.18152764	     -6.82219588	      6.59780477
      3.43500000	    -11.32245835	      7.50861757	     -4.79552320	     -1.11362619	     -0.06227223	      0.69586160	     -1.90423149	    -10.09004200	      5.26205558	    -30.52647800	     -0.97787604	     10.25438803	     33.25366540	     43.25448421	      4.71061918	     -1.31643758	    -32.84144428	     -1.29286727	     -2.61861612	      1.46075769	     10.29018138	     -7.47774334	      6.40679538
      3.44000000	    -11.31913310	      7.88776312	     -4.67256068	     -1.10553088	     -0.06285134	      0.69534753	     -1.05358283	    -10.57469740	      5.01459880	    -32.40604703	     -3.33371673	     10.44312787	     35.89526145	     43.30063646	      5.37172191	     -1.10661355	    -33.70796966	     -0.05778985	     -3.47986903	     -3.03145760	     10.34523235	     -8.07118797	      6.20654139
      3.44500000	    -11.30003022	      8.26806101	     -4.52913265	     -1.09744450	     -0.06334314	      0.69486453	     -0.19887426	    -11.05239716	      4.77537635	    -34.25192530	     -5.90241173	     10.43875778	     38.58797345	     43.25373442	      6.01989640	     -0.96933171	    -34.44772662	      1.28007142	     -4.20577058	     -7.72711376	     10.38180919	     -8.67083609	      5.98672049
      3.45000000	    -11.26379391	      8.64178753	     -4.31360497	     -1.08942499	     -0.06378203	      0.69419650	      0.65142928	    -11.53101463	      4.50284824	    -36.13087875	     -8.40428067	     10.60196067	     40.32356220	     43.13866472	      6.72538808	     -0.77721857	    -35.14999224	      3.23151304	     -4.69789999	    -14.24490443	     10.37865388	     -9.26027944	      5.66876027
      3.45500000	    -11.25609692	      8.92252218	     -4.17126986	     -1.08155750	     -0.06408002	      0.69382823	      1.56479241	    -11.86427586	      4.37498841	    -37.88242369	    -11.30886019	     10.28570743	     43.18268913	     42.94680671	      7.20407529	     -0.72761494	    -35.57073498	      3.72825755	     -5.23556567	    -15.88275586	     10.39387067	     -9.74889181	      5.43188491
      3.46000000	    -11.22626471	      9.22419121	     -3.96711801	     -1.07377639	     -0.06429682	      0.69330029	      2.47246077	    -12.25234036	      4.10247234	    -39.62316847	    -14.20884882	      9.92215324	     45.90222372	     42.69278928	      7.74028962	     -0.67906013	    -35.95301212	      4.49628077	     -5.51276814	    -18.04829431	     10.36784829	    -10.25444185	      5.14738058
      3.46500000	    -11.14578326	      9.57112223	     -3.71613299	     -1.06604075	     -0.06429101	      0.69254976	      3.32365056	    -12.70176523	      3.83715686	    -41.33901140	    -16.98973237	      9.66325334	     47.94445453	     42.32283550	      8.41055146	     -0.47987988	    -36.27508691	      5.93079053	     -5.68312922	    -22.40849218	     10.27482124	    -10.79504056	      4.77346939
      3.47000000	    -11.30431435	      9.76038009	     -3.52661370	     -1.05852266	     -0.06444567	      0.69202723	      4.51104917	    -12.91590359	      3.70099785	    -43.08514617	    -19.79390709	      9.01353882	     49.98765857	     42.17836126	      8.78470396	     -0.40535248	    -36.49888502	      6.20286414	     -5.84849066	    -22.59102656	     10.43203157	    -11.13856683	      4.50229220
      3.47500000	    -11.24558725	     10.06199889	     -3.29298272	     -1.05097774	     -0.06423564	      0.69136986	      5.44530975	    -13.31937369	      3.38033279	    -44.75431181	    -22.49824060	      8.17476268	     52.17179236	     41.73924271	      9.32998578	     -0.33648627	    -36.60410409	      6.55184168	     -5.98855631	    -22.86982088	     10.34775556	    -11.60942915	      4.19805073
      3.48000000	    -11.29644742	     10.34321699	     -3.07183461	     -1.04351383	     -0.06404823	      0.69070596	      6.54577881	    -13.68366917	      3.12312436	    -46.46922531	    -24.97308537	      7.15928670	     53.89083632	     41.39853873	      9.82765992	     -0.28598102	    -36.68469098	      6.96060571	     -6.11431847	    -23.19870274	     10.38874598	    -12.03526118	      3.89046995
      3.48500000	    -11.32840452	     10.65268259	     -2.86350137	     -1.03606587	     -0.06372680	      0.69004397	      7.65118569	    -14.07971496	      2.89233307	    -48.19286706	    -27.18507954	      5.93438456	     55.27731323	     40.99925614	     10.35064434	     -0.23312189	    -36.70325825	      7.41961596	     -6.24884471	    -23.58340564	     10.41970228	    -12.48000646	      3.56623374
      3.49000000	    -11.35010251	     10.97530741	     -2.68796554	     -1.02867390	     -0.06329910	      0.68931718	      8.79849583	    -14.50546367	      2.68136735	    -49.97956821	    -29.05107923	      4.63628967	     55.76530720	     40.56574182	     10.88112312	     -0.20392720	    -36.66672537	      7.78124841	     -6.51321813	    -23.80828608	     10.44661162	    -12.90493925	      3.34950497
      3.49500000	    -11.38916606	     11.31518339	     -2.50679745	     -1.02122786	     -0.06281312	      0.68861712	      9.97041782	    -14.94854571	      2.49498624	    -51.75532522	    -30.56981013	      3.14660240	     56.17241997	     40.11471591	     11.42324805	     -0.15075489	    -36.59591211	      8.23237882	     -6.62670007	    -23.98388115	     10.51243242	    -13.34528089	      3.09140053
